<?xml version="1.0" encoding="utf-8"?>
<!-- Generator: Adobe Illustrator 16.0.0, SVG Export Plug-In . SVG Version: 6.00 Build 0)  -->
<!DOCTYPE svg PUBLIC "-//W3C//DTD SVG 1.1//EN" "http://www.w3.org/Graphics/SVG/1.1/DTD/svg11.dtd">
<svg version="1.1" xmlns="http://www.w3.org/2000/svg" xmlns:xlink="http://www.w3.org/1999/xlink" x="0px" y="0px"
	 width="116.625px" height="49.959px" viewBox="0 0 116.625 49.959" enable-background="new 0 0 116.625 49.959"
	 xml:space="preserve">
<g id="Layer_1">
</g>
<g id="Layer_2">
	<g>
		<linearGradient id="SVGID_1_" gradientUnits="userSpaceOnUse" x1="-9.2529" y1="22.2949" x2="93.0852" y2="22.2949">
			<stop  offset="0" style="stop-color:#FF1244"/>
			<stop  offset="0.5025" style="stop-color:#5B78E6"/>
			<stop  offset="0.558" style="stop-color:#4C8BEA"/>
			<stop  offset="0.6959" style="stop-color:#2BB6F3"/>
			<stop  offset="0.8204" style="stop-color:#14D5FA"/>
			<stop  offset="0.926" style="stop-color:#05E7FE"/>
			<stop  offset="1" style="stop-color:#00EEFF"/>
		</linearGradient>
		<path fill="url(#SVGID_1_)" d="M11.45,28.088L11.45,28.088c-1.556,0-2.83-1.273-2.83-2.83v-5.927c0-1.556,1.274-2.83,2.83-2.83
			l0,0c1.557,0,2.83,1.274,2.83,2.83v5.927C14.28,26.815,13.007,28.088,11.45,28.088z"/>
		<linearGradient id="SVGID_2_" gradientUnits="userSpaceOnUse" x1="-9.2554" y1="25.1245" x2="93.1004" y2="25.1245">
			<stop  offset="0" style="stop-color:#FF1244"/>
			<stop  offset="0.5025" style="stop-color:#5B78E6"/>
			<stop  offset="0.558" style="stop-color:#4C8BEA"/>
			<stop  offset="0.6959" style="stop-color:#2BB6F3"/>
			<stop  offset="0.8204" style="stop-color:#14D5FA"/>
			<stop  offset="0.926" style="stop-color:#05E7FE"/>
			<stop  offset="1" style="stop-color:#00EEFF"/>
		</linearGradient>
		<path fill="url(#SVGID_2_)" d="M3.101,22.294L3.101,22.294c-1.557,0-2.83,1.274-2.83,2.831l0,0c0,1.557,1.273,2.829,2.83,2.829
			l0,0c1.557,0,2.831-1.272,2.831-2.829l0,0C5.931,23.568,4.657,22.294,3.101,22.294z"/>
		<linearGradient id="SVGID_3_" gradientUnits="userSpaceOnUse" x1="-9.2524" y1="21.3784" x2="93.0857" y2="21.3784">
			<stop  offset="0" style="stop-color:#FF1244"/>
			<stop  offset="0.5025" style="stop-color:#5B78E6"/>
			<stop  offset="0.558" style="stop-color:#4C8BEA"/>
			<stop  offset="0.6959" style="stop-color:#2BB6F3"/>
			<stop  offset="0.8204" style="stop-color:#14D5FA"/>
			<stop  offset="0.926" style="stop-color:#05E7FE"/>
			<stop  offset="1" style="stop-color:#00EEFF"/>
		</linearGradient>
		<path fill="url(#SVGID_3_)" d="M19.685,33.876L19.685,33.876c-1.556,0-2.83-1.273-2.83-2.83V11.711
			c0-1.557,1.274-2.831,2.83-2.831l0,0c1.557,0,2.83,1.273,2.83,2.831v19.334C22.515,32.603,21.241,33.876,19.685,33.876z"/>
		<linearGradient id="SVGID_4_" gradientUnits="userSpaceOnUse" x1="-9.2549" y1="27.7817" x2="93.0909" y2="27.7817">
			<stop  offset="0" style="stop-color:#FF1244"/>
			<stop  offset="0.5025" style="stop-color:#5B78E6"/>
			<stop  offset="0.558" style="stop-color:#4C8BEA"/>
			<stop  offset="0.6959" style="stop-color:#2BB6F3"/>
			<stop  offset="0.8204" style="stop-color:#14D5FA"/>
			<stop  offset="0.926" style="stop-color:#05E7FE"/>
			<stop  offset="1" style="stop-color:#00EEFF"/>
		</linearGradient>
		<path fill="url(#SVGID_4_)" d="M27.92,37.309L27.92,37.309c-1.557,0-2.831-1.273-2.831-2.831V21.084
			c0-1.557,1.273-2.83,2.831-2.83l0,0c1.557,0,2.83,1.273,2.83,2.83v13.394C30.75,36.036,29.477,37.309,27.92,37.309z"/>
		<linearGradient id="SVGID_5_" gradientUnits="userSpaceOnUse" x1="-9.2666" y1="25.125" x2="93.0969" y2="25.125">
			<stop  offset="0" style="stop-color:#FF1244"/>
			<stop  offset="0.5025" style="stop-color:#5B78E6"/>
			<stop  offset="0.558" style="stop-color:#4C8BEA"/>
			<stop  offset="0.6959" style="stop-color:#2BB6F3"/>
			<stop  offset="0.8204" style="stop-color:#14D5FA"/>
			<stop  offset="0.926" style="stop-color:#05E7FE"/>
			<stop  offset="1" style="stop-color:#00EEFF"/>
		</linearGradient>
		<path fill="url(#SVGID_5_)" d="M60.859,30.918L60.859,30.918c1.557,0,2.831-1.273,2.831-2.83v-5.927
			c0-1.556-1.273-2.83-2.831-2.83l0,0c-1.557,0-2.831,1.274-2.831,2.83v5.927C58.028,29.646,59.302,30.918,60.859,30.918z"/>
		<linearGradient id="SVGID_6_" gradientUnits="userSpaceOnUse" x1="-9.2539" y1="25.125" x2="93.0919" y2="25.125">
			<stop  offset="0" style="stop-color:#FF1244"/>
			<stop  offset="0.5025" style="stop-color:#5B78E6"/>
			<stop  offset="0.558" style="stop-color:#4C8BEA"/>
			<stop  offset="0.6959" style="stop-color:#2BB6F3"/>
			<stop  offset="0.8204" style="stop-color:#14D5FA"/>
			<stop  offset="0.926" style="stop-color:#05E7FE"/>
			<stop  offset="1" style="stop-color:#00EEFF"/>
		</linearGradient>
		<path fill="url(#SVGID_6_)" d="M52.625,41.369L52.625,41.369c1.556,0,2.83-1.273,2.83-2.83V11.711c0-1.557-1.274-2.831-2.83-2.831
			l0,0c-1.557,0-2.83,1.273-2.83,2.831v26.828C49.795,40.096,51.068,41.369,52.625,41.369z"/>
		<linearGradient id="SVGID_7_" gradientUnits="userSpaceOnUse" x1="-9.2588" y1="21.9297" x2="93.0959" y2="21.9297">
			<stop  offset="0" style="stop-color:#FF1244"/>
			<stop  offset="0.5025" style="stop-color:#5B78E6"/>
			<stop  offset="0.558" style="stop-color:#4C8BEA"/>
			<stop  offset="0.6959" style="stop-color:#2BB6F3"/>
			<stop  offset="0.8204" style="stop-color:#14D5FA"/>
			<stop  offset="0.926" style="stop-color:#05E7FE"/>
			<stop  offset="1" style="stop-color:#00EEFF"/>
		</linearGradient>
		<path fill="url(#SVGID_7_)" d="M44.289,30.918h0.202c1.5,0,2.729-1.229,2.729-2.729V15.671c0-1.501-1.229-2.729-2.729-2.729
			h-0.202c-1.501,0-2.729,1.229-2.729,2.729v12.518C41.56,29.69,42.788,30.918,44.289,30.918z"/>
		<linearGradient id="SVGID_8_" gradientUnits="userSpaceOnUse" x1="-9.2544" y1="20.7891" x2="93.0914" y2="20.7891">
			<stop  offset="0" style="stop-color:#FF1244"/>
			<stop  offset="0.5025" style="stop-color:#5B78E6"/>
			<stop  offset="0.558" style="stop-color:#4C8BEA"/>
			<stop  offset="0.6959" style="stop-color:#2BB6F3"/>
			<stop  offset="0.8204" style="stop-color:#14D5FA"/>
			<stop  offset="0.926" style="stop-color:#05E7FE"/>
			<stop  offset="1" style="stop-color:#00EEFF"/>
		</linearGradient>
		<path fill="url(#SVGID_8_)" d="M36.155,41.369L36.155,41.369c-1.557,0-2.83-1.273-2.83-2.83v-35.5c0-1.556,1.273-2.83,2.83-2.83
			l0,0c1.556,0,2.83,1.274,2.83,2.83v35.5C38.985,40.096,37.711,41.369,36.155,41.369z"/>
		<linearGradient id="SVGID_9_" gradientUnits="userSpaceOnUse" x1="-9.2544" y1="25.1245" x2="93.0926" y2="25.1245">
			<stop  offset="0" style="stop-color:#FF1244"/>
			<stop  offset="0.5025" style="stop-color:#5B78E6"/>
			<stop  offset="0.558" style="stop-color:#4C8BEA"/>
			<stop  offset="0.6959" style="stop-color:#2BB6F3"/>
			<stop  offset="0.8204" style="stop-color:#14D5FA"/>
			<stop  offset="0.926" style="stop-color:#05E7FE"/>
			<stop  offset="1" style="stop-color:#00EEFF"/>
		</linearGradient>
		<path fill="url(#SVGID_9_)" d="M68.965,27.955L68.965,27.955c1.557,0,2.831-1.272,2.831-2.829l0,0
			c0-1.557-1.274-2.831-2.831-2.831l0,0c-1.556,0-2.83,1.274-2.83,2.831l0,0C66.135,26.682,67.409,27.955,68.965,27.955z"/>
	</g>
	<g>
		<path fill="#196EED" d="M58.225,49.959V34.968h2.451v12.89h6.347v2.102H58.225z"/>
		<path fill="#196EED" d="M69.207,35.613c0-0.43,0.118-0.762,0.354-0.994c0.236-0.232,0.573-0.349,1.01-0.349
			c0.424,0,0.753,0.116,0.99,0.349c0.235,0.232,0.354,0.564,0.354,0.994c0,0.41-0.118,0.733-0.354,0.97
			c-0.236,0.235-0.566,0.354-0.99,0.354c-0.438,0-0.774-0.118-1.01-0.354C69.325,36.347,69.207,36.023,69.207,35.613z M71.76,49.959
			h-2.41V38.618h2.41V49.959z"/>
		<path fill="#196EED" d="M82.824,46.729c0,1.107-0.403,1.957-1.21,2.549c-0.807,0.591-1.962,0.887-3.466,0.887
			c-1.511,0-2.724-0.229-3.64-0.688v-2.081c1.333,0.615,2.574,0.923,3.722,0.923c1.483,0,2.225-0.447,2.225-1.344
			c0-0.287-0.082-0.525-0.246-0.717s-0.434-0.391-0.81-0.596s-0.899-0.437-1.569-0.697c-1.306-0.505-2.189-1.011-2.65-1.518
			c-0.462-0.505-0.692-1.161-0.692-1.969c0-0.97,0.391-1.724,1.174-2.261c0.783-0.536,1.848-0.805,3.194-0.805
			c1.333,0,2.594,0.271,3.784,0.81l-0.779,1.815c-1.224-0.506-2.252-0.759-3.086-0.759c-1.271,0-1.907,0.362-1.907,1.087
			c0,0.355,0.166,0.656,0.497,0.902s1.055,0.585,2.169,1.015c0.937,0.363,1.617,0.694,2.041,0.995s0.738,0.647,0.943,1.041
			C82.722,45.712,82.824,46.183,82.824,46.729z"/>
		<path fill="#196EED" d="M89.653,48.216c0.588,0,1.176-0.093,1.764-0.276v1.814c-0.267,0.116-0.61,0.214-1.03,0.292
			c-0.421,0.079-0.856,0.118-1.308,0.118c-2.283,0-3.425-1.203-3.425-3.609v-6.111h-1.548v-1.066l1.661-0.882l0.82-2.399h1.487
			v2.522h3.23v1.825h-3.23v6.07c0,0.581,0.145,1.01,0.436,1.287C88.8,48.077,89.182,48.216,89.653,48.216z"/>
		<path fill="#196EED" d="M98.636,50.164c-1.764,0-3.143-0.515-4.137-1.543c-0.995-1.029-1.492-2.445-1.492-4.25
			c0-1.853,0.461-3.309,1.384-4.369c0.923-1.059,2.191-1.589,3.804-1.589c1.497,0,2.68,0.455,3.548,1.364s1.302,2.16,1.302,3.752
			v1.303h-7.557c0.034,1.101,0.332,1.946,0.892,2.538c0.561,0.591,1.35,0.887,2.369,0.887c0.67,0,1.293-0.063,1.871-0.189
			c0.578-0.127,1.198-0.337,1.861-0.631v1.958c-0.588,0.281-1.183,0.479-1.784,0.596C100.095,50.105,99.408,50.164,98.636,50.164z
			 M98.195,40.238c-0.766,0-1.379,0.243-1.841,0.729c-0.461,0.485-0.736,1.192-0.825,2.122h5.147
			c-0.014-0.937-0.239-1.646-0.677-2.128C99.562,40.479,98.96,40.238,98.195,40.238z"/>
		<path fill="#196EED" d="M115.76,49.959h-2.42v-6.973c0-0.875-0.176-1.527-0.528-1.959c-0.353-0.43-0.911-0.646-1.677-0.646
			c-1.019,0-1.764,0.301-2.235,0.902s-0.708,1.61-0.708,3.024v5.65h-2.41V38.618h1.887l0.338,1.487h0.123
			c0.342-0.54,0.827-0.957,1.456-1.252c0.629-0.293,1.326-0.44,2.092-0.44c2.721,0,4.081,1.384,4.081,4.153V49.959z"/>
	</g>
	<g>
		<path fill="#196EED" d="M115.76,21.583c0,5.155-4.701,9.333-10.5,9.333h-17c-5.799,0-10.5-4.179-10.5-9.333l0,0
			c0-5.155,4.701-9.333,10.5-9.333h17C111.059,12.25,115.76,16.428,115.76,21.583L115.76,21.583z"/>
		<g>
			<path fill="#FFFFFF" d="M90.807,23.593c-0.035-0.172-0.063-0.326-0.082-0.463s-0.033-0.273-0.041-0.41
				c-0.223,0.285-0.501,0.522-0.835,0.712s-0.69,0.284-1.069,0.284c-0.66,0-1.162-0.161-1.506-0.483s-0.516-0.776-0.516-1.362
				c0-0.602,0.243-1.065,0.729-1.392s1.153-0.489,2.001-0.489h1.189v-0.738c0-0.371-0.117-0.665-0.352-0.882
				s-0.561-0.325-0.979-0.325c-0.289,0-0.544,0.037-0.765,0.111s-0.399,0.176-0.536,0.305l-0.123,0.668h-0.891v-1.23
				c0.289-0.23,0.639-0.415,1.049-0.554s0.855-0.208,1.336-0.208c0.719,0,1.301,0.184,1.746,0.551s0.668,0.893,0.668,1.576v3.053
				c0,0.082,0.001,0.162,0.003,0.24s0.007,0.156,0.015,0.234l0.469,0.064v0.738H90.807z M88.949,22.749
				c0.383,0,0.732-0.092,1.049-0.275s0.543-0.404,0.68-0.662v-1.043h-1.23c-0.473,0-0.847,0.109-1.122,0.328
				s-0.413,0.484-0.413,0.797c0,0.277,0.086,0.489,0.258,0.636S88.602,22.749,88.949,22.749z"/>
			<path fill="#FFFFFF" d="M93.139,25.286l0.955-0.164v-6.961l-0.955-0.164v-0.744h1.945l0.105,0.773
				c0.211-0.289,0.468-0.51,0.771-0.662s0.653-0.229,1.052-0.229c0.785,0,1.396,0.312,1.831,0.935s0.653,1.446,0.653,2.47v0.123
				c0,0.914-0.219,1.651-0.656,2.212s-1.041,0.841-1.811,0.841c-0.391,0-0.733-0.065-1.028-0.196s-0.546-0.325-0.753-0.583v2.186
				l0.955,0.164v0.744h-3.064V25.286z M98.336,20.54c0-0.723-0.141-1.314-0.422-1.775s-0.699-0.691-1.254-0.691
				c-0.328,0-0.609,0.074-0.844,0.223s-0.424,0.352-0.568,0.609v3.088c0.145,0.262,0.333,0.464,0.565,0.606s0.519,0.214,0.858,0.214
				c0.547,0,0.961-0.199,1.242-0.598s0.422-0.916,0.422-1.553V20.54z"/>
			<path fill="#FFFFFF" d="M100.404,25.286l0.955-0.164v-6.961l-0.955-0.164v-0.744h1.945l0.105,0.773
				c0.211-0.289,0.468-0.51,0.771-0.662s0.653-0.229,1.052-0.229c0.785,0,1.396,0.312,1.831,0.935s0.653,1.446,0.653,2.47v0.123
				c0,0.914-0.219,1.651-0.656,2.212s-1.041,0.841-1.811,0.841c-0.391,0-0.733-0.065-1.028-0.196s-0.546-0.325-0.753-0.583v2.186
				l0.955,0.164v0.744h-3.064V25.286z M105.602,20.54c0-0.723-0.141-1.314-0.422-1.775s-0.699-0.691-1.254-0.691
				c-0.328,0-0.609,0.074-0.844,0.223s-0.424,0.352-0.568,0.609v3.088c0.145,0.262,0.333,0.464,0.565,0.606s0.519,0.214,0.858,0.214
				c0.547,0,0.961-0.199,1.242-0.598s0.422-0.916,0.422-1.553V20.54z"/>
		</g>
	</g>
</g>
</svg>
